<svg xmlns="http://www.w3.org/2000/svg" xmlns:xlink="http://www.w3.org/1999/xlink" version="1.1" width="256" height="256" viewBox="0 0 256 256" xml:space="preserve">
<desc>Created with Fabric.js 1.7.22</desc>
<defs>
</defs>
<g transform="translate(128 128) scale(0.72 0.72)" style="">
	<g style="stroke: none; stroke-width: 0; stroke-dasharray: none; stroke-linecap: butt; stroke-linejoin: miter; stroke-miterlimit: 10; fill: none; fill-rule: nonzero; opacity: 1;" transform="translate(-175.05 -175.05000000000004) scale(3.89 3.89)" >
	<path d="M 39.381 82.363 c 0.134 0 0.268 -0.026 0.396 -0.081 c 0.366 -0.158 0.604 -0.52 0.604 -0.919 V 59.179 H 89 c 0.552 0 1 -0.447 1 -1 V 31.821 c 0 -0.552 -0.448 -1 -1 -1 H 40.381 V 8.637 c 0 -0.399 -0.238 -0.761 -0.604 -0.918 c -0.368 -0.157 -0.793 -0.083 -1.083 0.192 L 0.313 44.274 C 0.113 44.463 0 44.726 0 45 s 0.113 0.537 0.313 0.726 l 38.381 36.363 C 38.883 82.269 39.13 82.363 39.381 82.363 z M 88 57.179 H 39.381 c -0.553 0 -1 0.447 -1 1 v 20.859 L 2.454 45 l 35.927 -34.038 v 20.859 c 0 0.552 0.447 1 1 1 H 88 V 57.179 z" style="stroke: none; stroke-width: 1; stroke-dasharray: none; stroke-linecap: butt; stroke-linejoin: miter; stroke-miterlimit: 10; fill: rgb(0,0,0); fill-rule: nonzero; opacity: 1;" transform=" matrix(1 0 0 1 0 0) " stroke-linecap="round" />
</g>
</g>
</svg>