<svg xmlns="http://www.w3.org/2000/svg" xmlns:xlink="http://www.w3.org/1999/xlink" version="1.1" width="256" height="256" viewBox="0 0 256 256" xml:space="preserve">

<defs>
</defs>
<g style="stroke: none; stroke-width: 0; stroke-dasharray: none; stroke-linecap: butt; stroke-linejoin: miter; stroke-miterlimit: 10; fill: none; fill-rule: nonzero; opacity: 1;" transform="translate(1.4065934065934016 1.4065934065934016) scale(2.81 2.81)" >
	<polygon points="45,1 1.78,24.92 13.23,24.92 13.23,89 77.32,89 77.32,24.92 88.22,24.92 " style="stroke: none; stroke-width: 1; stroke-dasharray: none; stroke-linecap: butt; stroke-linejoin: miter; stroke-miterlimit: 10; fill: rgb(189,239,252); fill-rule: nonzero; opacity: 1;" transform="  matrix(1 0 0 1 0 0) "/>
	<path d="M 77.317 90 H 13.234 c -0.552 0 -1 -0.447 -1 -1 V 25.917 H 1.785 c -0.456 0 -0.854 -0.309 -0.968 -0.75 c -0.114 -0.441 0.085 -0.904 0.484 -1.125 L 44.516 0.125 c 0.302 -0.167 0.667 -0.167 0.969 0 L 88.7 24.042 c 0.398 0.221 0.598 0.684 0.483 1.125 c -0.113 0.441 -0.512 0.75 -0.968 0.75 h -9.898 V 89 C 78.317 89.553 77.87 90 77.317 90 z M 14.234 88 h 62.083 V 24.917 c 0 -0.552 0.447 -1 1 -1 h 7.026 L 45 2.143 L 5.657 23.917 h 7.578 c 0.552 0 1 0.448 1 1 V 88 z" style="stroke: none; stroke-width: 1; stroke-dasharray: none; stroke-linecap: butt; stroke-linejoin: miter; stroke-miterlimit: 10; fill: rgb(0,0,0); fill-rule: nonzero; opacity: 1;" transform=" matrix(1 0 0 1 0 0) " stroke-linecap="round" />
	<circle cx="44.995000000000005" cy="56.645" r="24.265" style="stroke: none; stroke-width: 1; stroke-dasharray: none; stroke-linecap: butt; stroke-linejoin: miter; stroke-miterlimit: 10; fill: rgb(234,246,249); fill-rule: nonzero; opacity: 1;" transform="  matrix(1 0 0 1 0 0) "/>
	<path d="M 45 81.909 c -1.005 0 -2.02 -0.061 -3.016 -0.179 c -0.548 -0.065 -0.94 -0.563 -0.875 -1.111 c 0.065 -0.549 0.561 -0.942 1.112 -0.875 c 1.851 0.221 3.757 0.219 5.607 -0.006 c 0.553 -0.065 1.047 0.324 1.113 0.873 c 0.066 0.548 -0.324 1.047 -0.873 1.113 C 47.057 81.847 46.024 81.909 45 81.909 z M 36.421 80.35 c -0.118 0 -0.237 -0.021 -0.354 -0.064 c -1.902 -0.72 -3.717 -1.671 -5.394 -2.827 c -0.455 -0.313 -0.569 -0.937 -0.255 -1.391 c 0.314 -0.454 0.938 -0.568 1.391 -0.256 c 1.544 1.065 3.214 1.94 4.965 2.603 c 0.517 0.195 0.777 0.772 0.582 1.289 C 37.206 80.104 36.825 80.35 36.421 80.35 z M 53.625 80.332 c -0.402 0 -0.782 -0.245 -0.935 -0.645 c -0.196 -0.516 0.063 -1.094 0.579 -1.29 c 1.748 -0.666 3.416 -1.545 4.957 -2.611 c 0.455 -0.314 1.077 -0.201 1.392 0.253 s 0.201 1.077 -0.253 1.392 c -1.674 1.158 -3.485 2.112 -5.384 2.836 C 53.864 80.312 53.743 80.332 53.625 80.332 z M 26.861 73.762 c -0.276 0 -0.55 -0.113 -0.748 -0.336 c -1.355 -1.522 -2.522 -3.205 -3.469 -5 c -0.258 -0.488 -0.071 -1.094 0.417 -1.352 c 0.49 -0.256 1.093 -0.07 1.351 0.418 c 0.873 1.652 1.947 3.202 3.195 4.605 c 0.367 0.412 0.33 1.044 -0.083 1.411 C 27.335 73.679 27.098 73.762 26.861 73.762 z M 63.171 73.729 c -0.236 0 -0.473 -0.083 -0.663 -0.251 c -0.413 -0.366 -0.452 -0.998 -0.086 -1.412 c 1.245 -1.407 2.317 -2.96 3.188 -4.613 c 0.257 -0.488 0.86 -0.677 1.35 -0.42 s 0.678 0.861 0.42 1.35 c -0.943 1.797 -2.107 3.481 -3.459 5.01 C 63.723 73.614 63.447 73.729 63.171 73.729 z M 21.444 63.497 c -0.449 0 -0.857 -0.305 -0.97 -0.76 c -0.487 -1.967 -0.736 -4 -0.739 -6.042 c -0.001 -0.553 0.446 -1.001 0.999 -1.002 c 0 0 0.001 0 0.001 0 c 0.552 0 0.999 0.446 1 0.998 c 0.003 1.882 0.232 3.755 0.681 5.565 c 0.133 0.536 -0.194 1.078 -0.73 1.211 C 21.605 63.487 21.524 63.497 21.444 63.497 z M 68.567 63.449 c -0.079 0 -0.159 -0.009 -0.239 -0.029 c -0.537 -0.132 -0.864 -0.673 -0.732 -1.209 c 0.444 -1.81 0.67 -3.683 0.67 -5.566 c 0 -0.553 0.447 -1.05 1 -1.05 s 1 0.397 1 0.95 v 0.1 c 0 2.045 -0.245 4.078 -0.729 6.043 C 69.426 63.144 69.017 63.449 68.567 63.449 z M 21.423 51.889 c -0.079 0 -0.158 -0.009 -0.237 -0.028 c -0.537 -0.131 -0.866 -0.672 -0.735 -1.208 c 0.48 -1.974 1.203 -3.892 2.147 -5.699 c 0.255 -0.489 0.859 -0.679 1.349 -0.423 s 0.679 0.859 0.423 1.349 c -0.869 1.664 -1.534 3.43 -1.976 5.246 C 22.282 51.582 21.873 51.889 21.423 51.889 z M 68.542 51.744 c -0.448 0 -0.855 -0.303 -0.969 -0.758 c -0.453 -1.814 -1.129 -3.574 -2.009 -5.232 c -0.259 -0.488 -0.072 -1.093 0.415 -1.352 c 0.487 -0.259 1.093 -0.073 1.353 0.415 c 0.955 1.801 1.688 3.713 2.181 5.685 c 0.135 0.536 -0.191 1.078 -0.728 1.212 C 68.704 51.734 68.622 51.744 68.542 51.744 z M 26.797 41.598 c -0.235 0 -0.471 -0.083 -0.661 -0.25 c -0.414 -0.366 -0.454 -0.998 -0.088 -1.412 c 1.346 -1.525 2.875 -2.888 4.544 -4.049 c 0.456 -0.316 1.077 -0.203 1.392 0.25 c 0.315 0.454 0.204 1.077 -0.25 1.392 c -1.538 1.07 -2.947 2.325 -4.187 3.73 C 27.35 41.483 27.074 41.598 26.797 41.598 z M 63.106 41.489 c -0.274 0 -0.548 -0.113 -0.746 -0.334 c -1.249 -1.399 -2.665 -2.646 -4.209 -3.706 c -0.455 -0.313 -0.57 -0.935 -0.258 -1.39 c 0.313 -0.456 0.934 -0.571 1.391 -0.258 c 1.675 1.15 3.212 2.503 4.568 4.022 c 0.367 0.412 0.332 1.044 -0.08 1.412 C 63.582 41.405 63.344 41.489 63.106 41.489 z M 36.328 34.975 c -0.402 0 -0.782 -0.245 -0.934 -0.643 c -0.197 -0.516 0.061 -1.094 0.577 -1.292 c 1.898 -0.727 3.887 -1.221 5.909 -1.47 c 0.545 -0.064 1.047 0.322 1.115 0.871 c 0.067 0.548 -0.322 1.047 -0.871 1.115 c -1.861 0.229 -3.691 0.684 -5.438 1.353 C 36.568 34.954 36.447 34.975 36.328 34.975 z M 53.533 34.922 c -0.117 0 -0.235 -0.021 -0.352 -0.064 c -1.752 -0.658 -3.585 -1.102 -5.449 -1.32 c -0.549 -0.064 -0.941 -0.561 -0.877 -1.109 c 0.064 -0.547 0.543 -0.946 1.109 -0.877 c 2.024 0.236 4.017 0.719 5.92 1.434 c 0.518 0.194 0.778 0.771 0.585 1.288 C 54.318 34.674 53.938 34.922 53.533 34.922 z" style="stroke: none; stroke-width: 1; stroke-dasharray: none; stroke-linecap: butt; stroke-linejoin: miter; stroke-miterlimit: 10; fill: rgb(0,0,0); fill-rule: nonzero; opacity: 1;" transform=" matrix(1 0 0 1 0 0) " stroke-linecap="round" />
	<circle cx="44.996" cy="47.836000000000006" r="4.886" style="stroke: none; stroke-width: 1; stroke-dasharray: none; stroke-linecap: butt; stroke-linejoin: miter; stroke-miterlimit: 10; fill: rgb(189,239,252); fill-rule: nonzero; opacity: 1;" transform="  matrix(1 0 0 1 0 0) "/>
	<path d="M 52.948 70.333 H 37.052 v -6.776 c 0 -3.166 2.567 -5.733 5.733 -5.733 h 4.43 c 3.166 0 5.733 2.567 5.733 5.733 V 70.333 z" style="stroke: none; stroke-width: 1; stroke-dasharray: none; stroke-linecap: butt; stroke-linejoin: miter; stroke-miterlimit: 10; fill: rgb(189,239,252); fill-rule: nonzero; opacity: 1;" transform=" matrix(1 0 0 1 0 0) " stroke-linecap="round" />
	<path d="M 45 53.728 c -3.246 0 -5.886 -2.641 -5.886 -5.887 c 0 -3.246 2.641 -5.886 5.886 -5.886 c 3.246 0 5.887 2.641 5.887 5.886 C 50.887 51.087 48.246 53.728 45 53.728 z M 45 43.955 c -2.143 0 -3.886 1.743 -3.886 3.886 c 0 2.144 1.743 3.887 3.886 3.887 c 2.144 0 3.887 -1.743 3.887 -3.887 C 48.887 45.698 47.144 43.955 45 43.955 z" style="stroke: none; stroke-width: 1; stroke-dasharray: none; stroke-linecap: butt; stroke-linejoin: miter; stroke-miterlimit: 10; fill: rgb(0,0,0); fill-rule: nonzero; opacity: 1;" transform=" matrix(1 0 0 1 0 0) " stroke-linecap="round" />
	<path d="M 52.948 71.333 H 37.052 c -0.552 0 -1 -0.447 -1 -1 v -6.775 c 0 -3.713 3.021 -6.733 6.733 -6.733 h 4.43 c 3.713 0 6.733 3.021 6.733 6.733 v 6.775 C 53.948 70.886 53.501 71.333 52.948 71.333 z M 38.052 69.333 h 13.896 v -5.775 c 0 -2.61 -2.123 -4.733 -4.733 -4.733 h -4.43 c -2.61 0 -4.733 2.123 -4.733 4.733 V 69.333 z" style="stroke: none; stroke-width: 1; stroke-dasharray: none; stroke-linecap: butt; stroke-linejoin: miter; stroke-miterlimit: 10; fill: rgb(0,0,0); fill-rule: nonzero; opacity: 1;" transform=" matrix(1 0 0 1 0 0) " stroke-linecap="round" />
</g>
</svg>