<svg xmlns="http://www.w3.org/2000/svg" xmlns:xlink="http://www.w3.org/1999/xlink" version="1.1" width="256" height="256" viewBox="0 0 256 256" xml:space="preserve">

<defs>
</defs>
<g style="stroke: none; stroke-width: 0; stroke-dasharray: none; stroke-linecap: butt; stroke-linejoin: miter; stroke-miterlimit: 10; fill: none; fill-rule: nonzero; opacity: 1;" transform="translate(1.4065934065934016 1.4065934065934016) scale(2.81 2.81)" >
	<path d="M 76.969 65.326 H 13.031 V 40.244 c 0 -3.553 2.88 -6.433 6.433 -6.433 h 51.071 c 3.553 0 6.433 2.88 6.433 6.433 V 65.326 z" style="stroke: none; stroke-width: 1; stroke-dasharray: none; stroke-linecap: butt; stroke-linejoin: miter; stroke-miterlimit: 10; fill: rgb(255,209,95); fill-rule: nonzero; opacity: 1;" transform=" matrix(1 0 0 1 0 0) " stroke-linecap="round" />
	<path d="M 79.759 90 H 10.241 c -2.887 0 -5.227 -2.34 -5.227 -5.227 V 75.28 c 0 -2.887 2.34 -5.227 5.227 -5.227 h 69.518 c 2.887 0 5.227 2.34 5.227 5.227 v 9.493 C 84.986 87.66 82.646 90 79.759 90 z" style="stroke: none; stroke-width: 1; stroke-dasharray: none; stroke-linecap: butt; stroke-linejoin: miter; stroke-miterlimit: 10; fill: rgb(179,217,255); fill-rule: nonzero; opacity: 1;" transform=" matrix(1 0 0 1 0 0) " stroke-linecap="round" />
	<path d="M 29.591 20.817 c 0 -7.64 6.216 -13.856 13.856 -13.856 h 3.106 c 7.64 0 13.857 6.216 13.857 13.856 V 33.81 h 6.961 V 20.817 C 67.37 9.339 58.032 0 46.553 0 h -3.106 C 31.969 0 22.63 9.339 22.63 20.817 V 33.81 h 6.961 V 20.817 z" style="stroke: none; stroke-width: 1; stroke-dasharray: none; stroke-linecap: butt; stroke-linejoin: miter; stroke-miterlimit: 10; fill: rgb(114,130,142); fill-rule: nonzero; opacity: 1;" transform=" matrix(1 0 0 1 0 0) " stroke-linecap="round" />
	<path d="M 45 82.119 c -0.555 0 -1.088 -0.22 -1.476 -0.617 c -0.398 -0.387 -0.617 -0.921 -0.617 -1.476 c 0 -0.136 0.01 -0.272 0.042 -0.408 c 0.021 -0.136 0.062 -0.273 0.115 -0.398 c 0.052 -0.126 0.115 -0.241 0.199 -0.357 c 0.073 -0.114 0.157 -0.22 0.262 -0.314 c 0.774 -0.785 2.177 -0.785 2.951 0 c 0.104 0.094 0.188 0.199 0.262 0.314 c 0.073 0.115 0.146 0.231 0.198 0.357 c 0.052 0.125 0.094 0.262 0.115 0.398 c 0.032 0.136 0.042 0.272 0.042 0.408 c 0 0.555 -0.22 1.088 -0.617 1.476 C 46.078 81.9 45.554 82.119 45 82.119 z" style="stroke: none; stroke-width: 1; stroke-dasharray: none; stroke-linecap: butt; stroke-linejoin: miter; stroke-miterlimit: 10; fill: rgb(114,130,142); fill-rule: nonzero; opacity: 1;" transform=" matrix(1 0 0 1 0 0) " stroke-linecap="round" />
	<path d="M 58.363 82.119 c -0.565 0 -1.088 -0.22 -1.486 -0.617 c -0.387 -0.387 -0.607 -0.921 -0.607 -1.476 c 0 -0.136 0.011 -0.272 0.042 -0.408 c 0.021 -0.136 0.063 -0.273 0.115 -0.398 c 0.052 -0.126 0.115 -0.241 0.188 -0.357 c 0.084 -0.114 0.168 -0.22 0.262 -0.314 c 0.105 -0.104 0.21 -0.188 0.325 -0.262 c 0.114 -0.084 0.23 -0.146 0.356 -0.198 c 0.126 -0.053 0.262 -0.094 0.398 -0.115 c 0.669 -0.136 1.402 0.084 1.884 0.575 c 0.094 0.094 0.188 0.199 0.262 0.314 c 0.074 0.115 0.146 0.231 0.199 0.357 c 0.052 0.125 0.084 0.262 0.114 0.398 c 0.032 0.136 0.042 0.272 0.042 0.408 c 0 0.555 -0.22 1.088 -0.617 1.476 C 59.442 81.9 58.918 82.119 58.363 82.119 z" style="stroke: none; stroke-width: 1; stroke-dasharray: none; stroke-linecap: butt; stroke-linejoin: miter; stroke-miterlimit: 10; fill: rgb(114,130,142); fill-rule: nonzero; opacity: 1;" transform=" matrix(1 0 0 1 0 0) " stroke-linecap="round" />
	<path d="M 71.728 82.119 c -0.565 0 -1.088 -0.22 -1.486 -0.617 c -0.387 -0.387 -0.607 -0.921 -0.607 -1.476 c 0 -0.136 0.01 -0.272 0.042 -0.408 c 0.02 -0.136 0.062 -0.273 0.114 -0.398 c 0.053 -0.126 0.115 -0.241 0.189 -0.357 c 0.084 -0.114 0.168 -0.22 0.262 -0.314 c 0.104 -0.104 0.208 -0.188 0.324 -0.262 c 0.105 -0.084 0.23 -0.146 0.356 -0.198 c 0.126 -0.053 0.262 -0.094 0.398 -0.115 c 0.67 -0.136 1.403 0.084 1.885 0.575 c 0.094 0.094 0.188 0.199 0.262 0.314 c 0.073 0.115 0.136 0.231 0.188 0.357 c 0.052 0.125 0.094 0.262 0.126 0.398 c 0.02 0.136 0.042 0.272 0.042 0.408 c 0 0.555 -0.22 1.088 -0.617 1.476 C 72.805 81.9 72.282 82.119 71.728 82.119 z" style="stroke: none; stroke-width: 1; stroke-dasharray: none; stroke-linecap: butt; stroke-linejoin: miter; stroke-miterlimit: 10; fill: rgb(114,130,142); fill-rule: nonzero; opacity: 1;" transform=" matrix(1 0 0 1 0 0) " stroke-linecap="round" />
	<path d="M 31.636 82.119 c -0.555 0 -1.088 -0.22 -1.476 -0.617 c -0.398 -0.387 -0.617 -0.921 -0.617 -1.476 s 0.22 -1.088 0.617 -1.476 c 0.481 -0.492 1.203 -0.711 1.884 -0.575 c 0.136 0.021 0.272 0.062 0.398 0.115 c 0.125 0.052 0.241 0.114 0.356 0.198 c 0.115 0.074 0.22 0.157 0.324 0.262 c 0.094 0.094 0.178 0.199 0.251 0.314 c 0.084 0.115 0.147 0.231 0.199 0.357 c 0.053 0.125 0.095 0.262 0.115 0.398 c 0.031 0.136 0.042 0.272 0.042 0.408 c 0 0.555 -0.22 1.088 -0.607 1.476 C 32.724 81.9 32.201 82.119 31.636 82.119 z" style="stroke: none; stroke-width: 1; stroke-dasharray: none; stroke-linecap: butt; stroke-linejoin: miter; stroke-miterlimit: 10; fill: rgb(114,130,142); fill-rule: nonzero; opacity: 1;" transform=" matrix(1 0 0 1 0 0) " stroke-linecap="round" />
	<path d="M 18.272 82.119 c -0.136 0 -0.272 -0.01 -0.408 -0.042 c -0.136 -0.02 -0.262 -0.062 -0.387 -0.115 c -0.126 -0.052 -0.251 -0.114 -0.366 -0.198 c -0.104 -0.074 -0.22 -0.157 -0.314 -0.262 c -0.398 -0.398 -0.617 -0.921 -0.617 -1.476 c 0 -0.136 0.021 -0.272 0.042 -0.408 c 0.031 -0.136 0.073 -0.273 0.125 -0.398 c 0.053 -0.126 0.115 -0.241 0.189 -0.357 c 0.073 -0.114 0.168 -0.22 0.262 -0.314 c 0.094 -0.104 0.199 -0.188 0.314 -0.262 c 0.115 -0.084 0.241 -0.146 0.366 -0.198 c 0.126 -0.053 0.251 -0.094 0.387 -0.115 c 0.691 -0.136 1.413 0.084 1.894 0.575 c 0.387 0.387 0.607 0.921 0.607 1.476 s -0.21 1.088 -0.607 1.476 C 19.36 81.9 18.837 82.119 18.272 82.119 z" style="stroke: none; stroke-width: 1; stroke-dasharray: none; stroke-linecap: butt; stroke-linejoin: miter; stroke-miterlimit: 10; fill: rgb(114,130,142); fill-rule: nonzero; opacity: 1;" transform=" matrix(1 0 0 1 0 0) " stroke-linecap="round" />
</g>
</svg>